# xmcd CD database file
#
# Track frame offsets:
#	150
#	47427
#	94237
#	111567
#	131678
#	178773
#	214448
#	230222
#	281516
#	319970
#
# Disc length: 4652 seconds
#
# Revision: 0
# Processed by: cddbd v1.5.2PL0 Copyright (c) Steve Scherf et al.
# Submitted via: CDex 1.51
#
DISCID=9f122a0a
DTITLE=Mingus Charles - BD JAZZ CD1
DYEAR=1957
DGENRE=Jazz
TTITLE0=Ysabel's table dance
TTITLE1=Los mariachis
TTITLE2=Tijuana gift shop
TTITLE3=Memories of you
TTITLE4=West coast ghosts
TTITLE5=Celia
TTITLE6=Long ago and far away
TTITLE7=Scenes in the city
TTITLE8=New York Sketchbook
TTITLE9=Duke's choice
EXTD=YEAR: 1957
EXTT0=
EXTT1=
EXTT2=
EXTT3=
EXTT4=
EXTT5=
EXTT6=
EXTT7=
EXTT8=
EXTT9=
PLAYORDER=
